<svg width="32" height="32" viewBox="0 0 32 32" fill="none" xmlns="http://www.w3.org/2000/svg">
<g id="Frame" clip-path="url(#clip0_1_378)">
<path id="Vector" d="M16 2.24C18.7215 2.24 21.3818 3.04701 23.6446 4.55898C25.9075 6.07095 27.6711 8.21996 28.7126 10.7343C29.754 13.2486 30.0265 16.0153 29.4956 18.6844C28.9647 21.3536 27.6542 23.8054 25.7298 25.7298C23.8054 27.6542 21.3536 28.9647 18.6844 29.4956C16.0153 30.0265 13.2486 29.754 10.7343 28.7126C8.21997 27.6711 6.07095 25.9075 4.55898 23.6446C3.04702 21.3818 2.24001 18.7215 2.24001 16C2.24001 12.3506 3.68972 8.85071 6.27022 6.27021C8.85072 3.68971 12.3506 2.24 16 2.24ZM16 0C12.8355 0 9.74207 0.938383 7.11088 2.69649C4.4797 4.45459 2.42894 6.95345 1.21793 9.87706C0.00693252 12.8007 -0.309921 16.0177 0.307443 19.1214C0.924806 22.2251 2.44866 25.0761 4.6863 27.3137C6.92394 29.5513 9.77486 31.0752 12.8786 31.6926C15.9823 32.3099 19.1993 31.9931 22.1229 30.7821C25.0466 29.5711 27.5454 27.5203 29.3035 24.8891C31.0616 22.2579 32 19.1645 32 16C32 11.7565 30.3143 7.68687 27.3137 4.68629C24.3131 1.68571 20.2435 0 16 0Z" fill="#A5ADB6"/>
<path id="Vector_2" d="M16.2528 8C16.822 8.05946 17.3873 8.15242 17.9456 8.2784C19.6512 8.7616 20.6656 10.1248 20.7936 11.936C20.8553 12.5164 20.7633 13.1027 20.5269 13.6363C20.2904 14.1699 19.9178 14.6319 19.4464 14.976C18.992 15.328 18.5152 15.648 18.0576 15.9936C17.726 16.2108 17.4574 16.5115 17.2788 16.8653C17.1002 17.2192 17.0178 17.6138 17.04 18.0096C17.0514 18.2952 16.9668 18.5764 16.7998 18.8084C16.6327 19.0404 16.3929 19.2098 16.1184 19.2896C15.8262 19.4021 15.5049 19.4144 15.2049 19.3246C14.9049 19.2349 14.6432 19.0481 14.4608 18.7936C14.3413 18.593 14.2762 18.3647 14.272 18.1312C14.2493 17.4078 14.4035 16.6897 14.7214 16.0395C15.0393 15.3892 15.5111 14.8264 16.096 14.4C16.6096 14.0091 17.0941 13.5813 17.5456 13.12C17.7608 12.8665 17.8917 12.5522 17.92 12.2208C17.9936 11.3152 17.4112 10.7328 16.4736 10.672C15.3408 10.5984 14.3872 10.8928 13.7216 11.8944C13.5827 12.1305 13.3749 12.3184 13.126 12.4328C12.8771 12.5472 12.5992 12.5827 12.3296 12.5344C11.3696 12.3744 10.9568 11.5936 11.3504 10.6944C11.7624 9.81804 12.4708 9.11538 13.3504 8.7104C14.2549 8.26588 15.2453 8.02347 16.2528 8Z" fill="#A5ADB6"/>
<path id="Vector_3" d="M17.2096 22.3616C17.216 23.3888 16.64 24 15.632 24C14.624 24 13.952 23.4112 13.9488 22.5504C13.9488 21.3568 14.4832 20.7616 15.5488 20.7296C16.416 20.704 17.3184 21.2352 17.2096 22.3616Z" fill="#A5ADB6"/>
</g>
<defs>
<clipPath id="clip0_1_378">
<rect width="32" height="32" fill="white"/>
</clipPath>
</defs>
</svg>
