<svg width="177" height="44" viewBox="0 0 177 44" fill="none" xmlns="http://www.w3.org/2000/svg">
<g id="Frame" clip-path="url(#clip0_27_31)">
<g id="Group">
<path id="Vector" d="M22.6992 0.295898C11.2536 0.295898 1.87709 9.12122 0.986084 20.3368L12.6642 25.1652C13.6537 24.4884 14.8491 24.0919 16.1351 24.0919C16.2504 24.0919 16.3651 24.0959 16.4789 24.1023L21.6722 16.5748C21.6722 16.5389 21.6717 16.5039 21.6717 16.4684C21.6717 11.9376 25.3574 8.25139 29.8888 8.25139C34.4196 8.25139 38.1053 11.9376 38.1053 16.4684C38.1053 20.9993 34.4196 24.6859 29.8888 24.6859C29.8262 24.6859 29.7642 24.6845 29.7021 24.683L22.2953 29.9679C22.2992 30.064 22.3027 30.162 22.3027 30.2595C22.3027 33.661 19.5361 36.4271 16.1351 36.4271C13.1498 36.4271 10.6536 34.2964 10.0882 31.4746L1.73671 28.0219C4.32254 37.1674 12.7248 43.8723 22.6992 43.8723C34.7329 43.8723 44.4876 34.1171 44.4876 22.0848C44.4876 10.0506 34.7324 0.295898 22.6992 0.295898Z" fill="#C5C3C0"/>
<path id="Vector_2" d="M14.6397 33.3559L11.9633 32.2502C12.4376 33.2377 13.2581 34.0647 14.3476 34.5188C16.703 35.5 19.4183 34.3824 20.4 32.0251C20.8753 30.8854 20.8782 29.6269 20.4069 28.4842C19.9365 27.3411 19.0489 26.4496 17.9077 25.9738C16.7754 25.5024 15.5622 25.5196 14.4964 25.922L17.261 27.0652C18.9982 27.7893 19.8197 29.784 19.0957 31.5212C18.3732 33.2589 16.3769 34.0805 14.6397 33.3559Z" fill="#C5C3C0"/>
<path id="Vector_3" d="M35.3633 16.4682C35.3633 13.4495 32.9075 10.9932 29.8883 10.9932C26.8695 10.9932 24.4132 13.4495 24.4132 16.4682C24.4132 19.4875 26.8695 21.9428 29.8883 21.9428C32.9075 21.9423 35.3633 19.487 35.3633 16.4682ZM25.7844 16.4589C25.7844 14.1873 27.626 12.3462 29.8976 12.3462C32.1692 12.3462 34.0108 14.1873 34.0108 16.4589C34.0108 18.7305 32.1692 20.5716 29.8976 20.5716C27.626 20.5716 25.7844 18.73 25.7844 16.4589Z" fill="#C5C3C0"/>
<path id="Vector_4" d="M67.7567 15.2034L66.2968 17.7695C65.1723 16.9839 63.6484 16.511 62.318 16.511C60.7976 16.511 59.8568 17.1405 59.8568 18.2679C59.8568 19.6377 61.528 19.9564 64.0119 20.8478C66.6819 21.792 68.2167 22.9017 68.2167 25.3472C68.2167 28.693 65.5856 30.5721 61.8038 30.5721C59.9608 30.5721 57.7374 30.0963 56.0283 29.0565L57.0932 26.2116C58.4817 26.945 60.1425 27.3799 61.6231 27.3799C63.6188 27.3799 64.5675 26.6436 64.5675 25.555C64.5675 24.3094 63.1209 23.9351 60.7858 23.1618C58.1246 22.2733 56.2805 21.1074 56.2805 18.4009C56.2805 15.3487 58.725 13.5957 62.2422 13.5957C64.6936 13.5957 66.6637 14.3724 67.7567 15.2034Z" fill="#C5C3C0"/>
<path id="Vector_5" d="M79.1688 16.8253V30.2908H75.7314V16.8253H70.7419V13.877H84.1434V16.8253H79.1688Z" fill="#C5C3C0"/>
<path id="Vector_6" d="M91.3897 16.8164V20.5149H97.968V23.4632H91.3897V27.3154H99.0221V30.2908H87.9532V13.877H99.0221V16.8164H91.3897Z" fill="#C5C3C0"/>
<path id="Vector_7" d="M106.694 27.1041L105.608 30.2913H102.004L108.159 13.8774H111.619L117.947 30.2908H114.222L113.112 27.1036L106.694 27.1041ZM109.869 17.7926L107.628 24.3646H112.157L109.869 17.7926Z" fill="#C5C3C0"/>
<path id="Vector_8" d="M135.588 20.2214L131.096 29.8126H129.157L124.738 20.3071V30.2908H121.446V13.877H124.73L130.247 25.7255L135.567 13.877H138.88V30.2908H135.589L135.588 20.2214Z" fill="#C5C3C0"/>
<path id="Vector_9" d="M145.525 15.948C145.525 17.3586 144.468 18.2378 143.255 18.2378C142.037 18.2378 140.978 17.3586 140.978 15.948C140.978 14.5378 142.037 13.6646 143.255 13.6646C144.469 13.6646 145.525 14.5378 145.525 15.948ZM141.36 15.948C141.36 17.1281 142.21 17.8694 143.255 17.8694C144.296 17.8694 145.143 17.1281 145.143 15.948C145.143 14.7644 144.296 14.0344 143.255 14.0344C142.213 14.0344 141.36 14.7733 141.36 15.948ZM143.287 14.7811C143.875 14.7811 144.073 15.0924 144.073 15.4288C144.073 15.7372 143.89 15.944 143.668 16.0494L144.195 17.038H143.763L143.319 16.1617H142.86V17.038H142.5V14.7811H143.287ZM142.863 15.8312H143.264C143.524 15.8312 143.677 15.6682 143.677 15.4633C143.677 15.2564 143.567 15.1235 143.263 15.1235H142.863V15.8312H142.863Z" fill="#C5C3C0"/>
</g>
</g>
<defs>
<clipPath id="clip0_27_31">
<rect width="175.179" height="44" fill="white" transform="translate(0.910278)"/>
</clipPath>
</defs>
</svg>
